<svg xmlns="http://www.w3.org/2000/svg" xmlns:xlink="http://www.w3.org/1999/xlink" width="500" zoomAndPan="magnify" viewBox="0 0 375 374.999991" height="500" preserveAspectRatio="xMidYMid meet" version="1.0"><defs><clipPath id="id1"><path d="M 23.183594 0 L 351.683594 0 L 351.683594 375 L 23.183594 375 Z M 23.183594 0 " clip-rule="nonzero"/></clipPath></defs><path fill="#ffffff" d="M 293.910156 125.949219 C 293.246094 124.722656 292.371094 123.515625 290.550781 122.59375 L 264.539062 107.566406 C 264.179688 107.359375 263.796875 107.203125 263.382812 107.097656 C 263.257812 107.066406 263.128906 107.066406 262.988281 107.046875 C 262.71875 107 262.449219 106.953125 262.179688 106.953125 L 262.128906 106.953125 L 262.128906 106.964844 C 261.355469 106.976562 260.601562 107.183594 259.933594 107.566406 L 201.40625 141.375 L 201.355469 141.273438 L 196.632812 144.007812 C 190.933594 147.292969 183.929688 147.292969 178.230469 144.007812 L 152.644531 129.234375 C 151.226562 128.410156 150.351562 126.890625 150.351562 125.246094 C 150.351562 123.601562 151.226562 122.082031 152.644531 121.257812 L 178.230469 106.492188 C 183.929688 103.203125 190.933594 103.203125 196.632812 106.492188 L 202.792969 110.046875 C 204.214844 110.867188 205.960938 110.867188 207.386719 110.046875 L 231.214844 96.289062 C 232.640625 95.46875 233.511719 93.949219 233.511719 92.304688 C 233.511719 90.660156 232.640625 89.140625 231.214844 88.320312 L 196.632812 68.339844 C 190.933594 65.054688 183.929688 65.054688 178.230469 68.339844 L 93.511719 117.277344 C 87.378906 120.820312 87.378906 129.667969 93.511719 133.210938 L 178.230469 182.148438 C 183.929688 185.433594 190.933594 185.433594 196.632812 182.148438 L 262.128906 144.316406 L 262.128906 230.492188 L 241.082031 242.6875 L 196.632812 268.4375 C 195.222656 269.246094 193.71875 269.863281 192.152344 270.285156 C 187.457031 271.53125 182.453125 270.863281 178.230469 268.4375 L 117.332031 233.265625 C 114.484375 231.621094 112.730469 228.578125 112.730469 225.292969 L 112.730469 175.0625 C 112.730469 173.417969 111.851562 171.890625 110.433594 171.082031 L 86.609375 157.308594 C 85.1875 156.484375 83.433594 156.484375 82.007812 157.308594 C 80.585938 158.128906 79.710938 159.65625 79.710938 161.300781 L 79.710938 244.367188 C 79.710938 247.65625 81.464844 250.683594 84.3125 252.339844 L 178.230469 306.589844 C 180.988281 308.179688 184.121094 309.015625 187.304688 309.042969 L 187.367188 309.042969 C 187.816406 309.042969 188.265625 308.988281 188.714844 308.964844 C 189.0625 308.9375 189.40625 308.9375 189.753906 308.898438 C 190.230469 308.835938 190.703125 308.71875 191.164062 308.628906 C 191.488281 308.554688 191.808594 308.515625 192.117188 308.4375 C 192.628906 308.308594 193.117188 308.117188 193.605469 307.9375 C 193.886719 307.835938 194.15625 307.769531 194.414062 307.667969 C 195.167969 307.359375 195.914062 307 196.621094 306.589844 L 277.652344 259.785156 L 290.5 252.492188 C 293.375 250.863281 295.15625 247.808594 295.15625 244.496094 L 295.15625 130.554688 C 295.15625 128.910156 294.707031 127.328125 293.910156 125.949219 " fill-opacity="1" fill-rule="nonzero"/><g clip-path="url(#id1)"><path fill="#ffffff" d="M 196.402344 40.824219 C 193.667969 39.246094 190.589844 38.40625 187.433594 38.375 C 184.289062 38.40625 181.195312 39.25 178.460938 40.824219 L 65.289062 106.191406 C 59.613281 109.472656 56.113281 115.527344 56.113281 122.085938 L 56.113281 252.832031 C 56.113281 259.390625 59.609375 265.449219 65.289062 268.722656 L 178.460938 334.089844 C 181.234375 335.695312 184.363281 336.542969 187.558594 336.554688 C 190.753906 336.542969 193.898438 335.695312 196.671875 334.101562 L 309.347656 269.019531 C 315.019531 265.746094 318.523438 259.6875 318.523438 253.125 L 318.523438 215.347656 C 318.511719 213.703125 319.394531 212.191406 320.808594 211.367188 L 344.804688 197.515625 C 346.214844 196.695312 347.972656 196.695312 349.386719 197.515625 C 350.808594 198.339844 351.683594 199.851562 351.683594 201.496094 L 351.683594 271.855469 C 351.667969 274.859375 350.925781 277.8125 349.511719 280.457031 C 349.152344 282.191406 347.269531 284.230469 344.597656 286.324219 C 344.546875 286.375 344.46875 286.425781 344.40625 286.476562 C 337.628906 291.753906 326.414062 297.195312 324.425781 298.351562 L 196.671875 372.140625 C 193.808594 373.78125 190.550781 374.628906 187.253906 374.589844 L 187.109375 374.589844 L 187.109375 374.578125 C 184.070312 374.5 181.09375 373.652344 178.460938 372.140625 L 32.355469 287.75 C 26.679688 284.476562 23.183594 278.414062 23.183594 271.855469 L 23.183594 103.074219 C 23.183594 100.128906 23.554688 97.125 24.847656 94.585938 C 25.027344 93.925781 26.796875 90.683594 30.445312 88.015625 C 31.820312 87.089844 34.25 85.84375 36.527344 84.527344 L 178.054688 2.789062 C 180.902344 1.144531 184.148438 0.300781 187.433594 0.339844 C 190.730469 0.300781 193.964844 1.144531 196.8125 2.789062 L 327.40625 78.207031 C 327.699219 78.386719 327.929688 78.605469 328.1875 78.8125 L 329.84375 79.757812 C 334.28125 82.113281 341.238281 85.703125 345.011719 88.570312 L 345.320312 88.800781 C 345.371094 88.839844 345.421875 88.878906 345.472656 88.910156 C 345.601562 89.023438 345.691406 89.132812 345.820312 89.25 C 347.203125 90.40625 348.386719 91.769531 349.296875 93.292969 C 349.320312 93.3125 349.335938 93.339844 349.359375 93.363281 L 349.347656 93.367188 C 350.875 95.914062 351.683594 98.828125 351.683594 101.800781 L 351.683594 163.601562 C 351.683594 165.242188 350.8125 166.757812 349.386719 167.582031 L 325.390625 181.445312 C 323.980469 182.253906 322.222656 182.253906 320.808594 181.445312 C 319.386719 180.621094 318.511719 179.109375 318.511719 177.464844 L 318.511719 121.730469 C 318.511719 115.167969 315.007812 109.101562 309.324219 105.824219 L 196.402344 40.820312 Z M 196.402344 40.824219 " fill-opacity="1" fill-rule="nonzero"/></g></svg>